<?xml version="1.0" encoding="utf-8" standalone="no"?>
<!DOCTYPE svg PUBLIC "-//W3C//DTD SVG 1.1//EN"
  "http://www.w3.org/Graphics/SVG/1.1/DTD/svg11.dtd">
<svg xmlns:xlink="http://www.w3.org/1999/xlink" width="720pt" height="432pt" viewBox="0 0 720 432" xmlns="http://www.w3.org/2000/svg" version="1.1">
 <metadata>
  <rdf:RDF xmlns:dc="http://purl.org/dc/elements/1.1/" xmlns:cc="http://creativecommons.org/ns#" xmlns:rdf="http://www.w3.org/1999/02/22-rdf-syntax-ns#">
   <cc:Work>
    <dc:type rdf:resource="http://purl.org/dc/dcmitype/StillImage"/>
    <dc:date>2024-07-16T13:50:07.652257</dc:date>
    <dc:format>image/svg+xml</dc:format>
    <dc:creator>
     <cc:Agent>
      <dc:title>Matplotlib v3.8.3, https://matplotlib.org/</dc:title>
     </cc:Agent>
    </dc:creator>
   </cc:Work>
  </rdf:RDF>
 </metadata>
 <defs>
  <style type="text/css">*{stroke-linejoin: round; stroke-linecap: butt}</style>
 </defs>
 <g id="figure_1">
  <g id="patch_1">
   <path d="M 0 432 
L 720 432 
L 720 0 
L 0 0 
z
" style="fill: #ffffff"/>
  </g>
  <g id="axes_1">
   <g id="patch_2">
    <path d="M 90 384.48 
L 648 384.48 
L 648 51.84 
L 90 51.84 
z
" style="fill: #ffffff"/>
   </g>
   <g id="PolyCollection_1">
    <defs>
     <path id="m8a62d3ae79" d="M 115.363636 -365.04 
L 115.363636 -365.04 
L 171.727273 -80.816032 
L 228.090909 -71.452965 
L 284.454545 -68.894364 
L 340.818182 -68.539423 
L 397.181818 -66.771227 
L 453.545455 -66.757943 
L 509.909091 -64.65304 
L 566.272727 -64.5588 
L 622.636364 -62.64 
L 622.636364 -154.044439 
L 622.636364 -154.044439 
L 566.272727 -177.43899 
L 509.909091 -177.594109 
L 453.545455 -191.245094 
L 397.181818 -200.885555 
L 340.818182 -271.090419 
L 284.454545 -271.186376 
L 228.090909 -318.159671 
L 171.727273 -361.847509 
L 115.363636 -365.04 
z
" style="stroke: #05a087; stroke-opacity: 0.3"/>
    </defs>
    <g clip-path="url(#pd9796046c8)">
     <use xlink:href="#m8a62d3ae79" x="0" y="432" style="fill: #05a087; fill-opacity: 0.3; stroke: #05a087; stroke-opacity: 0.3"/>
    </g>
   </g>
   <g id="PolyCollection_2">
    <defs>
     <path id="mf47edf5148" d="M 115.363636 -365.04 
L 115.363636 -365.04 
L 171.727273 -105.500564 
L 228.090909 -92.39203 
L 284.454545 -89.151451 
L 340.818182 -77.135126 
L 397.181818 -74.933118 
L 453.545455 -74.844241 
L 509.909091 -72.533275 
L 566.272727 -70.656716 
L 622.636364 -69.841954 
L 622.636364 -180.830293 
L 622.636364 -180.830293 
L 566.272727 -191.19639 
L 509.909091 -200.898901 
L 453.545455 -201.231385 
L 397.181818 -271.090419 
L 340.818182 -271.186385 
L 284.454545 -291.850347 
L 228.090909 -318.159679 
L 171.727273 -361.72276 
L 115.363636 -365.04 
z
" style="stroke: #d43f3b; stroke-opacity: 0.3"/>
    </defs>
    <g clip-path="url(#pd9796046c8)">
     <use xlink:href="#mf47edf5148" x="0" y="432" style="fill: #d43f3b; fill-opacity: 0.3; stroke: #d43f3b; stroke-opacity: 0.3"/>
    </g>
   </g>
   <g id="PolyCollection_3">
    <defs>
     <path id="m8f8485088e" d="M 115.363636 -365.04 
L 115.363636 -313.061848 
L 171.727273 -212.874009 
L 228.090909 -192.412773 
L 284.454545 -182.547207 
L 340.818182 -178.950677 
L 397.181818 -176.562359 
L 453.545455 -175.464332 
L 509.909091 -174.163288 
L 566.272727 -173.895229 
L 622.636364 -173.747024 
L 622.636364 -205.688161 
L 622.636364 -205.688161 
L 566.272727 -208.271383 
L 509.909091 -212.756453 
L 453.545455 -228.317807 
L 397.181818 -232.998417 
L 340.818182 -242.737618 
L 284.454545 -266.67121 
L 228.090909 -272.292247 
L 171.727273 -294.203929 
L 115.363636 -365.04 
z
" style="stroke: #6d3e99; stroke-opacity: 0.3"/>
    </defs>
    <g clip-path="url(#pd9796046c8)">
     <use xlink:href="#m8f8485088e" x="0" y="432" style="fill: #6d3e99; fill-opacity: 0.3; stroke: #6d3e99; stroke-opacity: 0.3"/>
    </g>
   </g>
   <g id="matplotlib.axis_1">
    <g id="xtick_1">
     <g id="line2d_1">
      <defs>
       <path id="m00a5381534" d="M 0 0 
L 0 3.5 
" style="stroke: #000000; stroke-width: 0.8"/>
      </defs>
      <g>
       <use xlink:href="#m00a5381534" x="115.363636" y="384.48" style="stroke: #000000; stroke-width: 0.8"/>
      </g>
     </g>
     <g id="text_1">
      <!-- 0 -->
      <g transform="translate(112.182386 399.078438) scale(0.1 -0.1)">
       <defs>
        <path id="DejaVuSans-30" d="M 2034 4250 
Q 1547 4250 1301 3770 
Q 1056 3291 1056 2328 
Q 1056 1369 1301 889 
Q 1547 409 2034 409 
Q 2525 409 2770 889 
Q 3016 1369 3016 2328 
Q 3016 3291 2770 3770 
Q 2525 4250 2034 4250 
z
M 2034 4750 
Q 2819 4750 3233 4129 
Q 3647 3509 3647 2328 
Q 3647 1150 3233 529 
Q 2819 -91 2034 -91 
Q 1250 -91 836 529 
Q 422 1150 422 2328 
Q 422 3509 836 4129 
Q 1250 4750 2034 4750 
z
" transform="scale(0.015625)"/>
       </defs>
       <use xlink:href="#DejaVuSans-30"/>
      </g>
     </g>
    </g>
    <g id="xtick_2">
     <g id="line2d_2">
      <g>
       <use xlink:href="#m00a5381534" x="228.090909" y="384.48" style="stroke: #000000; stroke-width: 0.8"/>
      </g>
     </g>
     <g id="text_2">
      <!-- 2 -->
      <g transform="translate(224.909659 399.078438) scale(0.1 -0.1)">
       <defs>
        <path id="DejaVuSans-32" d="M 1228 531 
L 3431 531 
L 3431 0 
L 469 0 
L 469 531 
Q 828 903 1448 1529 
Q 2069 2156 2228 2338 
Q 2531 2678 2651 2914 
Q 2772 3150 2772 3378 
Q 2772 3750 2511 3984 
Q 2250 4219 1831 4219 
Q 1534 4219 1204 4116 
Q 875 4013 500 3803 
L 500 4441 
Q 881 4594 1212 4672 
Q 1544 4750 1819 4750 
Q 2544 4750 2975 4387 
Q 3406 4025 3406 3419 
Q 3406 3131 3298 2873 
Q 3191 2616 2906 2266 
Q 2828 2175 2409 1742 
Q 1991 1309 1228 531 
z
" transform="scale(0.015625)"/>
       </defs>
       <use xlink:href="#DejaVuSans-32"/>
      </g>
     </g>
    </g>
    <g id="xtick_3">
     <g id="line2d_3">
      <g>
       <use xlink:href="#m00a5381534" x="340.818182" y="384.48" style="stroke: #000000; stroke-width: 0.8"/>
      </g>
     </g>
     <g id="text_3">
      <!-- 4 -->
      <g transform="translate(337.636932 399.078438) scale(0.1 -0.1)">
       <defs>
        <path id="DejaVuSans-34" d="M 2419 4116 
L 825 1625 
L 2419 1625 
L 2419 4116 
z
M 2253 4666 
L 3047 4666 
L 3047 1625 
L 3713 1625 
L 3713 1100 
L 3047 1100 
L 3047 0 
L 2419 0 
L 2419 1100 
L 313 1100 
L 313 1709 
L 2253 4666 
z
" transform="scale(0.015625)"/>
       </defs>
       <use xlink:href="#DejaVuSans-34"/>
      </g>
     </g>
    </g>
    <g id="xtick_4">
     <g id="line2d_4">
      <g>
       <use xlink:href="#m00a5381534" x="453.545455" y="384.48" style="stroke: #000000; stroke-width: 0.8"/>
      </g>
     </g>
     <g id="text_4">
      <!-- 6 -->
      <g transform="translate(450.364205 399.078438) scale(0.1 -0.1)">
       <defs>
        <path id="DejaVuSans-36" d="M 2113 2584 
Q 1688 2584 1439 2293 
Q 1191 2003 1191 1497 
Q 1191 994 1439 701 
Q 1688 409 2113 409 
Q 2538 409 2786 701 
Q 3034 994 3034 1497 
Q 3034 2003 2786 2293 
Q 2538 2584 2113 2584 
z
M 3366 4563 
L 3366 3988 
Q 3128 4100 2886 4159 
Q 2644 4219 2406 4219 
Q 1781 4219 1451 3797 
Q 1122 3375 1075 2522 
Q 1259 2794 1537 2939 
Q 1816 3084 2150 3084 
Q 2853 3084 3261 2657 
Q 3669 2231 3669 1497 
Q 3669 778 3244 343 
Q 2819 -91 2113 -91 
Q 1303 -91 875 529 
Q 447 1150 447 2328 
Q 447 3434 972 4092 
Q 1497 4750 2381 4750 
Q 2619 4750 2861 4703 
Q 3103 4656 3366 4563 
z
" transform="scale(0.015625)"/>
       </defs>
       <use xlink:href="#DejaVuSans-36"/>
      </g>
     </g>
    </g>
    <g id="xtick_5">
     <g id="line2d_5">
      <g>
       <use xlink:href="#m00a5381534" x="566.272727" y="384.48" style="stroke: #000000; stroke-width: 0.8"/>
      </g>
     </g>
     <g id="text_5">
      <!-- 8 -->
      <g transform="translate(563.091477 399.078438) scale(0.1 -0.1)">
       <defs>
        <path id="DejaVuSans-38" d="M 2034 2216 
Q 1584 2216 1326 1975 
Q 1069 1734 1069 1313 
Q 1069 891 1326 650 
Q 1584 409 2034 409 
Q 2484 409 2743 651 
Q 3003 894 3003 1313 
Q 3003 1734 2745 1975 
Q 2488 2216 2034 2216 
z
M 1403 2484 
Q 997 2584 770 2862 
Q 544 3141 544 3541 
Q 544 4100 942 4425 
Q 1341 4750 2034 4750 
Q 2731 4750 3128 4425 
Q 3525 4100 3525 3541 
Q 3525 3141 3298 2862 
Q 3072 2584 2669 2484 
Q 3125 2378 3379 2068 
Q 3634 1759 3634 1313 
Q 3634 634 3220 271 
Q 2806 -91 2034 -91 
Q 1263 -91 848 271 
Q 434 634 434 1313 
Q 434 1759 690 2068 
Q 947 2378 1403 2484 
z
M 1172 3481 
Q 1172 3119 1398 2916 
Q 1625 2713 2034 2713 
Q 2441 2713 2670 2916 
Q 2900 3119 2900 3481 
Q 2900 3844 2670 4047 
Q 2441 4250 2034 4250 
Q 1625 4250 1398 4047 
Q 1172 3844 1172 3481 
z
" transform="scale(0.015625)"/>
       </defs>
       <use xlink:href="#DejaVuSans-38"/>
      </g>
     </g>
    </g>
    <g id="text_6">
     <!-- k -->
     <g transform="translate(366.104688 412.756563) scale(0.1 -0.1)">
      <defs>
       <path id="DejaVuSans-6b" d="M 581 4863 
L 1159 4863 
L 1159 1991 
L 2875 3500 
L 3609 3500 
L 1753 1863 
L 3688 0 
L 2938 0 
L 1159 1709 
L 1159 0 
L 581 0 
L 581 4863 
z
" transform="scale(0.015625)"/>
      </defs>
      <use xlink:href="#DejaVuSans-6b"/>
     </g>
    </g>
   </g>
   <g id="matplotlib.axis_2">
    <g id="ytick_1">
     <g id="line2d_6">
      <defs>
       <path id="m837edc0988" d="M 0 0 
L -3.5 0 
" style="stroke: #000000; stroke-width: 0.8"/>
      </defs>
      <g>
       <use xlink:href="#m837edc0988" x="90" y="372.296137" style="stroke: #000000; stroke-width: 0.8"/>
      </g>
     </g>
     <g id="text_7">
      <!-- 0.0 -->
      <g transform="translate(67.096875 376.095356) scale(0.1 -0.1)">
       <defs>
        <path id="DejaVuSans-2e" d="M 684 794 
L 1344 794 
L 1344 0 
L 684 0 
L 684 794 
z
" transform="scale(0.015625)"/>
       </defs>
       <use xlink:href="#DejaVuSans-30"/>
       <use xlink:href="#DejaVuSans-2e" x="63.623047"/>
       <use xlink:href="#DejaVuSans-30" x="95.410156"/>
      </g>
     </g>
    </g>
    <g id="ytick_2">
     <g id="line2d_7">
      <g>
       <use xlink:href="#m837edc0988" x="90" y="311.22891" style="stroke: #000000; stroke-width: 0.8"/>
      </g>
     </g>
     <g id="text_8">
      <!-- 0.2 -->
      <g transform="translate(67.096875 315.028128) scale(0.1 -0.1)">
       <use xlink:href="#DejaVuSans-30"/>
       <use xlink:href="#DejaVuSans-2e" x="63.623047"/>
       <use xlink:href="#DejaVuSans-32" x="95.410156"/>
      </g>
     </g>
    </g>
    <g id="ytick_3">
     <g id="line2d_8">
      <g>
       <use xlink:href="#m837edc0988" x="90" y="250.161682" style="stroke: #000000; stroke-width: 0.8"/>
      </g>
     </g>
     <g id="text_9">
      <!-- 0.4 -->
      <g transform="translate(67.096875 253.960901) scale(0.1 -0.1)">
       <use xlink:href="#DejaVuSans-30"/>
       <use xlink:href="#DejaVuSans-2e" x="63.623047"/>
       <use xlink:href="#DejaVuSans-34" x="95.410156"/>
      </g>
     </g>
    </g>
    <g id="ytick_4">
     <g id="line2d_9">
      <g>
       <use xlink:href="#m837edc0988" x="90" y="189.094455" style="stroke: #000000; stroke-width: 0.8"/>
      </g>
     </g>
     <g id="text_10">
      <!-- 0.6 -->
      <g transform="translate(67.096875 192.893674) scale(0.1 -0.1)">
       <use xlink:href="#DejaVuSans-30"/>
       <use xlink:href="#DejaVuSans-2e" x="63.623047"/>
       <use xlink:href="#DejaVuSans-36" x="95.410156"/>
      </g>
     </g>
    </g>
    <g id="ytick_5">
     <g id="line2d_10">
      <g>
       <use xlink:href="#m837edc0988" x="90" y="128.027227" style="stroke: #000000; stroke-width: 0.8"/>
      </g>
     </g>
     <g id="text_11">
      <!-- 0.8 -->
      <g transform="translate(67.096875 131.826446) scale(0.1 -0.1)">
       <use xlink:href="#DejaVuSans-30"/>
       <use xlink:href="#DejaVuSans-2e" x="63.623047"/>
       <use xlink:href="#DejaVuSans-38" x="95.410156"/>
      </g>
     </g>
    </g>
    <g id="ytick_6">
     <g id="line2d_11">
      <g>
       <use xlink:href="#m837edc0988" x="90" y="66.96" style="stroke: #000000; stroke-width: 0.8"/>
      </g>
     </g>
     <g id="text_12">
      <!-- 1.0 -->
      <g transform="translate(67.096875 70.759219) scale(0.1 -0.1)">
       <defs>
        <path id="DejaVuSans-31" d="M 794 531 
L 1825 531 
L 1825 4091 
L 703 3866 
L 703 4441 
L 1819 4666 
L 2450 4666 
L 2450 531 
L 3481 531 
L 3481 0 
L 794 0 
L 794 531 
z
" transform="scale(0.015625)"/>
       </defs>
       <use xlink:href="#DejaVuSans-31"/>
       <use xlink:href="#DejaVuSans-2e" x="63.623047"/>
       <use xlink:href="#DejaVuSans-30" x="95.410156"/>
      </g>
     </g>
    </g>
    <g id="text_13">
     <!-- Retrieval Score (PPR Score) -->
     <g transform="translate(61.017187 286.556875) rotate(-90) scale(0.1 -0.1)">
      <defs>
       <path id="DejaVuSans-52" d="M 2841 2188 
Q 3044 2119 3236 1894 
Q 3428 1669 3622 1275 
L 4263 0 
L 3584 0 
L 2988 1197 
Q 2756 1666 2539 1819 
Q 2322 1972 1947 1972 
L 1259 1972 
L 1259 0 
L 628 0 
L 628 4666 
L 2053 4666 
Q 2853 4666 3247 4331 
Q 3641 3997 3641 3322 
Q 3641 2881 3436 2590 
Q 3231 2300 2841 2188 
z
M 1259 4147 
L 1259 2491 
L 2053 2491 
Q 2509 2491 2742 2702 
Q 2975 2913 2975 3322 
Q 2975 3731 2742 3939 
Q 2509 4147 2053 4147 
L 1259 4147 
z
" transform="scale(0.015625)"/>
       <path id="DejaVuSans-65" d="M 3597 1894 
L 3597 1613 
L 953 1613 
Q 991 1019 1311 708 
Q 1631 397 2203 397 
Q 2534 397 2845 478 
Q 3156 559 3463 722 
L 3463 178 
Q 3153 47 2828 -22 
Q 2503 -91 2169 -91 
Q 1331 -91 842 396 
Q 353 884 353 1716 
Q 353 2575 817 3079 
Q 1281 3584 2069 3584 
Q 2775 3584 3186 3129 
Q 3597 2675 3597 1894 
z
M 3022 2063 
Q 3016 2534 2758 2815 
Q 2500 3097 2075 3097 
Q 1594 3097 1305 2825 
Q 1016 2553 972 2059 
L 3022 2063 
z
" transform="scale(0.015625)"/>
       <path id="DejaVuSans-74" d="M 1172 4494 
L 1172 3500 
L 2356 3500 
L 2356 3053 
L 1172 3053 
L 1172 1153 
Q 1172 725 1289 603 
Q 1406 481 1766 481 
L 2356 481 
L 2356 0 
L 1766 0 
Q 1100 0 847 248 
Q 594 497 594 1153 
L 594 3053 
L 172 3053 
L 172 3500 
L 594 3500 
L 594 4494 
L 1172 4494 
z
" transform="scale(0.015625)"/>
       <path id="DejaVuSans-72" d="M 2631 2963 
Q 2534 3019 2420 3045 
Q 2306 3072 2169 3072 
Q 1681 3072 1420 2755 
Q 1159 2438 1159 1844 
L 1159 0 
L 581 0 
L 581 3500 
L 1159 3500 
L 1159 2956 
Q 1341 3275 1631 3429 
Q 1922 3584 2338 3584 
Q 2397 3584 2469 3576 
Q 2541 3569 2628 3553 
L 2631 2963 
z
" transform="scale(0.015625)"/>
       <path id="DejaVuSans-69" d="M 603 3500 
L 1178 3500 
L 1178 0 
L 603 0 
L 603 3500 
z
M 603 4863 
L 1178 4863 
L 1178 4134 
L 603 4134 
L 603 4863 
z
" transform="scale(0.015625)"/>
       <path id="DejaVuSans-76" d="M 191 3500 
L 800 3500 
L 1894 563 
L 2988 3500 
L 3597 3500 
L 2284 0 
L 1503 0 
L 191 3500 
z
" transform="scale(0.015625)"/>
       <path id="DejaVuSans-61" d="M 2194 1759 
Q 1497 1759 1228 1600 
Q 959 1441 959 1056 
Q 959 750 1161 570 
Q 1363 391 1709 391 
Q 2188 391 2477 730 
Q 2766 1069 2766 1631 
L 2766 1759 
L 2194 1759 
z
M 3341 1997 
L 3341 0 
L 2766 0 
L 2766 531 
Q 2569 213 2275 61 
Q 1981 -91 1556 -91 
Q 1019 -91 701 211 
Q 384 513 384 1019 
Q 384 1609 779 1909 
Q 1175 2209 1959 2209 
L 2766 2209 
L 2766 2266 
Q 2766 2663 2505 2880 
Q 2244 3097 1772 3097 
Q 1472 3097 1187 3025 
Q 903 2953 641 2809 
L 641 3341 
Q 956 3463 1253 3523 
Q 1550 3584 1831 3584 
Q 2591 3584 2966 3190 
Q 3341 2797 3341 1997 
z
" transform="scale(0.015625)"/>
       <path id="DejaVuSans-6c" d="M 603 4863 
L 1178 4863 
L 1178 0 
L 603 0 
L 603 4863 
z
" transform="scale(0.015625)"/>
       <path id="DejaVuSans-20" transform="scale(0.015625)"/>
       <path id="DejaVuSans-53" d="M 3425 4513 
L 3425 3897 
Q 3066 4069 2747 4153 
Q 2428 4238 2131 4238 
Q 1616 4238 1336 4038 
Q 1056 3838 1056 3469 
Q 1056 3159 1242 3001 
Q 1428 2844 1947 2747 
L 2328 2669 
Q 3034 2534 3370 2195 
Q 3706 1856 3706 1288 
Q 3706 609 3251 259 
Q 2797 -91 1919 -91 
Q 1588 -91 1214 -16 
Q 841 59 441 206 
L 441 856 
Q 825 641 1194 531 
Q 1563 422 1919 422 
Q 2459 422 2753 634 
Q 3047 847 3047 1241 
Q 3047 1584 2836 1778 
Q 2625 1972 2144 2069 
L 1759 2144 
Q 1053 2284 737 2584 
Q 422 2884 422 3419 
Q 422 4038 858 4394 
Q 1294 4750 2059 4750 
Q 2388 4750 2728 4690 
Q 3069 4631 3425 4513 
z
" transform="scale(0.015625)"/>
       <path id="DejaVuSans-63" d="M 3122 3366 
L 3122 2828 
Q 2878 2963 2633 3030 
Q 2388 3097 2138 3097 
Q 1578 3097 1268 2742 
Q 959 2388 959 1747 
Q 959 1106 1268 751 
Q 1578 397 2138 397 
Q 2388 397 2633 464 
Q 2878 531 3122 666 
L 3122 134 
Q 2881 22 2623 -34 
Q 2366 -91 2075 -91 
Q 1284 -91 818 406 
Q 353 903 353 1747 
Q 353 2603 823 3093 
Q 1294 3584 2113 3584 
Q 2378 3584 2631 3529 
Q 2884 3475 3122 3366 
z
" transform="scale(0.015625)"/>
       <path id="DejaVuSans-6f" d="M 1959 3097 
Q 1497 3097 1228 2736 
Q 959 2375 959 1747 
Q 959 1119 1226 758 
Q 1494 397 1959 397 
Q 2419 397 2687 759 
Q 2956 1122 2956 1747 
Q 2956 2369 2687 2733 
Q 2419 3097 1959 3097 
z
M 1959 3584 
Q 2709 3584 3137 3096 
Q 3566 2609 3566 1747 
Q 3566 888 3137 398 
Q 2709 -91 1959 -91 
Q 1206 -91 779 398 
Q 353 888 353 1747 
Q 353 2609 779 3096 
Q 1206 3584 1959 3584 
z
" transform="scale(0.015625)"/>
       <path id="DejaVuSans-28" d="M 1984 4856 
Q 1566 4138 1362 3434 
Q 1159 2731 1159 2009 
Q 1159 1288 1364 580 
Q 1569 -128 1984 -844 
L 1484 -844 
Q 1016 -109 783 600 
Q 550 1309 550 2009 
Q 550 2706 781 3412 
Q 1013 4119 1484 4856 
L 1984 4856 
z
" transform="scale(0.015625)"/>
       <path id="DejaVuSans-50" d="M 1259 4147 
L 1259 2394 
L 2053 2394 
Q 2494 2394 2734 2622 
Q 2975 2850 2975 3272 
Q 2975 3691 2734 3919 
Q 2494 4147 2053 4147 
L 1259 4147 
z
M 628 4666 
L 2053 4666 
Q 2838 4666 3239 4311 
Q 3641 3956 3641 3272 
Q 3641 2581 3239 2228 
Q 2838 1875 2053 1875 
L 1259 1875 
L 1259 0 
L 628 0 
L 628 4666 
z
" transform="scale(0.015625)"/>
       <path id="DejaVuSans-29" d="M 513 4856 
L 1013 4856 
Q 1481 4119 1714 3412 
Q 1947 2706 1947 2009 
Q 1947 1309 1714 600 
Q 1481 -109 1013 -844 
L 513 -844 
Q 928 -128 1133 580 
Q 1338 1288 1338 2009 
Q 1338 2731 1133 3434 
Q 928 4138 513 4856 
z
" transform="scale(0.015625)"/>
      </defs>
      <use xlink:href="#DejaVuSans-52"/>
      <use xlink:href="#DejaVuSans-65" x="64.982422"/>
      <use xlink:href="#DejaVuSans-74" x="126.505859"/>
      <use xlink:href="#DejaVuSans-72" x="165.714844"/>
      <use xlink:href="#DejaVuSans-69" x="206.828125"/>
      <use xlink:href="#DejaVuSans-65" x="234.611328"/>
      <use xlink:href="#DejaVuSans-76" x="296.134766"/>
      <use xlink:href="#DejaVuSans-61" x="355.314453"/>
      <use xlink:href="#DejaVuSans-6c" x="416.59375"/>
      <use xlink:href="#DejaVuSans-20" x="444.376953"/>
      <use xlink:href="#DejaVuSans-53" x="476.164062"/>
      <use xlink:href="#DejaVuSans-63" x="539.640625"/>
      <use xlink:href="#DejaVuSans-6f" x="594.621094"/>
      <use xlink:href="#DejaVuSans-72" x="655.802734"/>
      <use xlink:href="#DejaVuSans-65" x="694.666016"/>
      <use xlink:href="#DejaVuSans-20" x="756.189453"/>
      <use xlink:href="#DejaVuSans-28" x="787.976562"/>
      <use xlink:href="#DejaVuSans-50" x="826.990234"/>
      <use xlink:href="#DejaVuSans-50" x="887.292969"/>
      <use xlink:href="#DejaVuSans-52" x="947.595703"/>
      <use xlink:href="#DejaVuSans-20" x="1017.078125"/>
      <use xlink:href="#DejaVuSans-53" x="1048.865234"/>
      <use xlink:href="#DejaVuSans-63" x="1112.341797"/>
      <use xlink:href="#DejaVuSans-6f" x="1167.322266"/>
      <use xlink:href="#DejaVuSans-72" x="1228.503906"/>
      <use xlink:href="#DejaVuSans-65" x="1267.367188"/>
      <use xlink:href="#DejaVuSans-29" x="1328.890625"/>
     </g>
    </g>
   </g>
   <g id="line2d_12">
    <path d="M 115.363636 66.96 
L 171.727273 277.638835 
L 228.090909 306.990535 
L 284.454545 323.283597 
L 340.818182 330.373808 
L 397.181818 341.816145 
L 453.545455 344.995133 
L 509.909091 347.47657 
L 566.272727 348.20124 
L 622.636364 352.758104 
" clip-path="url(#pd9796046c8)" style="fill: none; stroke: #05a087; stroke-width: 1.5; stroke-linecap: square"/>
    <defs>
     <path id="ma22001adf0" d="M 0 3 
C 0.795609 3 1.55874 2.683901 2.12132 2.12132 
C 2.683901 1.55874 3 0.795609 3 0 
C 3 -0.795609 2.683901 -1.55874 2.12132 -2.12132 
C 1.55874 -2.683901 0.795609 -3 0 -3 
C -0.795609 -3 -1.55874 -2.683901 -2.12132 -2.12132 
C -2.683901 -1.55874 -3 -0.795609 -3 0 
C -3 0.795609 -2.683901 1.55874 -2.12132 2.12132 
C -1.55874 2.683901 -0.795609 3 0 3 
z
" style="stroke: #05a087"/>
    </defs>
    <g clip-path="url(#pd9796046c8)">
     <use xlink:href="#ma22001adf0" x="115.363636" y="66.96" style="fill: #05a087; stroke: #05a087"/>
     <use xlink:href="#ma22001adf0" x="171.727273" y="277.638835" style="fill: #05a087; stroke: #05a087"/>
     <use xlink:href="#ma22001adf0" x="228.090909" y="306.990535" style="fill: #05a087; stroke: #05a087"/>
     <use xlink:href="#ma22001adf0" x="284.454545" y="323.283597" style="fill: #05a087; stroke: #05a087"/>
     <use xlink:href="#ma22001adf0" x="340.818182" y="330.373808" style="fill: #05a087; stroke: #05a087"/>
     <use xlink:href="#ma22001adf0" x="397.181818" y="341.816145" style="fill: #05a087; stroke: #05a087"/>
     <use xlink:href="#ma22001adf0" x="453.545455" y="344.995133" style="fill: #05a087; stroke: #05a087"/>
     <use xlink:href="#ma22001adf0" x="509.909091" y="347.47657" style="fill: #05a087; stroke: #05a087"/>
     <use xlink:href="#ma22001adf0" x="566.272727" y="348.20124" style="fill: #05a087; stroke: #05a087"/>
     <use xlink:href="#ma22001adf0" x="622.636364" y="352.758104" style="fill: #05a087; stroke: #05a087"/>
    </g>
   </g>
   <g id="line2d_13">
    <path d="M 115.363636 66.96 
L 171.727273 223.122056 
L 228.090909 271.083446 
L 284.454545 286.916728 
L 340.818182 303.559202 
L 397.181818 310.32445 
L 453.545455 324.158908 
L 509.909091 326.963166 
L 566.272727 332.25923 
L 622.636364 336.013136 
" clip-path="url(#pd9796046c8)" style="fill: none; stroke: #d43f3b; stroke-width: 1.5; stroke-linecap: square"/>
    <defs>
     <path id="m9619b44a1d" d="M 0 3 
C 0.795609 3 1.55874 2.683901 2.12132 2.12132 
C 2.683901 1.55874 3 0.795609 3 0 
C 3 -0.795609 2.683901 -1.55874 2.12132 -2.12132 
C 1.55874 -2.683901 0.795609 -3 0 -3 
C -0.795609 -3 -1.55874 -2.683901 -2.12132 -2.12132 
C -2.683901 -1.55874 -3 -0.795609 -3 0 
C -3 0.795609 -2.683901 1.55874 -2.12132 2.12132 
C -1.55874 2.683901 -0.795609 3 0 3 
z
" style="stroke: #d43f3b"/>
    </defs>
    <g clip-path="url(#pd9796046c8)">
     <use xlink:href="#m9619b44a1d" x="115.363636" y="66.96" style="fill: #d43f3b; stroke: #d43f3b"/>
     <use xlink:href="#m9619b44a1d" x="171.727273" y="223.122056" style="fill: #d43f3b; stroke: #d43f3b"/>
     <use xlink:href="#m9619b44a1d" x="228.090909" y="271.083446" style="fill: #d43f3b; stroke: #d43f3b"/>
     <use xlink:href="#m9619b44a1d" x="284.454545" y="286.916728" style="fill: #d43f3b; stroke: #d43f3b"/>
     <use xlink:href="#m9619b44a1d" x="340.818182" y="303.559202" style="fill: #d43f3b; stroke: #d43f3b"/>
     <use xlink:href="#m9619b44a1d" x="397.181818" y="310.32445" style="fill: #d43f3b; stroke: #d43f3b"/>
     <use xlink:href="#m9619b44a1d" x="453.545455" y="324.158908" style="fill: #d43f3b; stroke: #d43f3b"/>
     <use xlink:href="#m9619b44a1d" x="509.909091" y="326.963166" style="fill: #d43f3b; stroke: #d43f3b"/>
     <use xlink:href="#m9619b44a1d" x="566.272727" y="332.25923" style="fill: #d43f3b; stroke: #d43f3b"/>
     <use xlink:href="#m9619b44a1d" x="622.636364" y="336.013136" style="fill: #d43f3b; stroke: #d43f3b"/>
    </g>
   </g>
   <g id="line2d_14">
    <path d="M 115.363636 90.885503 
L 171.727273 186.011454 
L 228.090909 209.387252 
L 284.454545 214.71943 
L 340.818182 223.381784 
L 397.181818 227.076968 
L 453.545455 229.217363 
L 509.909091 232.733151 
L 566.272727 234.655161 
L 622.636364 236.102055 
" clip-path="url(#pd9796046c8)" style="fill: none; stroke: #6d3e99; stroke-width: 1.5; stroke-linecap: square"/>
    <defs>
     <path id="mfa1fccf7ce" d="M 0 3 
C 0.795609 3 1.55874 2.683901 2.12132 2.12132 
C 2.683901 1.55874 3 0.795609 3 0 
C 3 -0.795609 2.683901 -1.55874 2.12132 -2.12132 
C 1.55874 -2.683901 0.795609 -3 0 -3 
C -0.795609 -3 -1.55874 -2.683901 -2.12132 -2.12132 
C -2.683901 -1.55874 -3 -0.795609 -3 0 
C -3 0.795609 -2.683901 1.55874 -2.12132 2.12132 
C -1.55874 2.683901 -0.795609 3 0 3 
z
" style="stroke: #6d3e99"/>
    </defs>
    <g clip-path="url(#pd9796046c8)">
     <use xlink:href="#mfa1fccf7ce" x="115.363636" y="90.885503" style="fill: #6d3e99; stroke: #6d3e99"/>
     <use xlink:href="#mfa1fccf7ce" x="171.727273" y="186.011454" style="fill: #6d3e99; stroke: #6d3e99"/>
     <use xlink:href="#mfa1fccf7ce" x="228.090909" y="209.387252" style="fill: #6d3e99; stroke: #6d3e99"/>
     <use xlink:href="#mfa1fccf7ce" x="284.454545" y="214.71943" style="fill: #6d3e99; stroke: #6d3e99"/>
     <use xlink:href="#mfa1fccf7ce" x="340.818182" y="223.381784" style="fill: #6d3e99; stroke: #6d3e99"/>
     <use xlink:href="#mfa1fccf7ce" x="397.181818" y="227.076968" style="fill: #6d3e99; stroke: #6d3e99"/>
     <use xlink:href="#mfa1fccf7ce" x="453.545455" y="229.217363" style="fill: #6d3e99; stroke: #6d3e99"/>
     <use xlink:href="#mfa1fccf7ce" x="509.909091" y="232.733151" style="fill: #6d3e99; stroke: #6d3e99"/>
     <use xlink:href="#mfa1fccf7ce" x="566.272727" y="234.655161" style="fill: #6d3e99; stroke: #6d3e99"/>
     <use xlink:href="#mfa1fccf7ce" x="622.636364" y="236.102055" style="fill: #6d3e99; stroke: #6d3e99"/>
    </g>
   </g>
   <g id="patch_3">
    <path d="M 90 384.48 
L 90 51.84 
" style="fill: none; stroke: #000000; stroke-width: 0.8; stroke-linejoin: miter; stroke-linecap: square"/>
   </g>
   <g id="patch_4">
    <path d="M 648 384.48 
L 648 51.84 
" style="fill: none; stroke: #000000; stroke-width: 0.8; stroke-linejoin: miter; stroke-linecap: square"/>
   </g>
   <g id="patch_5">
    <path d="M 90 384.48 
L 648 384.48 
" style="fill: none; stroke: #000000; stroke-width: 0.8; stroke-linejoin: miter; stroke-linecap: square"/>
   </g>
   <g id="patch_6">
    <path d="M 90 51.84 
L 648 51.84 
" style="fill: none; stroke: #000000; stroke-width: 0.8; stroke-linejoin: miter; stroke-linecap: square"/>
   </g>
   <g id="legend_1">
    <g id="patch_7">
     <path d="M 487.723437 147.90875 
L 641 147.90875 
Q 643 147.90875 643 145.90875 
L 643 58.84 
Q 643 56.84 641 56.84 
L 487.723437 56.84 
Q 485.723437 56.84 485.723437 58.84 
L 485.723437 145.90875 
Q 485.723437 147.90875 487.723437 147.90875 
z
" style="fill: #ffffff; opacity: 0.8; stroke: #cccccc; stroke-linejoin: miter"/>
    </g>
    <g id="line2d_15">
     <path d="M 489.723437 64.938437 
L 499.723437 64.938437 
L 509.723437 64.938437 
" style="fill: none; stroke: #05a087; stroke-width: 1.5; stroke-linecap: square"/>
     <g>
      <use xlink:href="#ma22001adf0" x="499.723437" y="64.938437" style="fill: #05a087; stroke: #05a087"/>
     </g>
    </g>
    <g id="text_14">
     <!-- Mean w/o Relation -->
     <g transform="translate(517.723438 68.438437) scale(0.1 -0.1)">
      <defs>
       <path id="DejaVuSans-4d" d="M 628 4666 
L 1569 4666 
L 2759 1491 
L 3956 4666 
L 4897 4666 
L 4897 0 
L 4281 0 
L 4281 4097 
L 3078 897 
L 2444 897 
L 1241 4097 
L 1241 0 
L 628 0 
L 628 4666 
z
" transform="scale(0.015625)"/>
       <path id="DejaVuSans-6e" d="M 3513 2113 
L 3513 0 
L 2938 0 
L 2938 2094 
Q 2938 2591 2744 2837 
Q 2550 3084 2163 3084 
Q 1697 3084 1428 2787 
Q 1159 2491 1159 1978 
L 1159 0 
L 581 0 
L 581 3500 
L 1159 3500 
L 1159 2956 
Q 1366 3272 1645 3428 
Q 1925 3584 2291 3584 
Q 2894 3584 3203 3211 
Q 3513 2838 3513 2113 
z
" transform="scale(0.015625)"/>
       <path id="DejaVuSans-77" d="M 269 3500 
L 844 3500 
L 1563 769 
L 2278 3500 
L 2956 3500 
L 3675 769 
L 4391 3500 
L 4966 3500 
L 4050 0 
L 3372 0 
L 2619 2869 
L 1863 0 
L 1184 0 
L 269 3500 
z
" transform="scale(0.015625)"/>
       <path id="DejaVuSans-2f" d="M 1625 4666 
L 2156 4666 
L 531 -594 
L 0 -594 
L 1625 4666 
z
" transform="scale(0.015625)"/>
      </defs>
      <use xlink:href="#DejaVuSans-4d"/>
      <use xlink:href="#DejaVuSans-65" x="86.279297"/>
      <use xlink:href="#DejaVuSans-61" x="147.802734"/>
      <use xlink:href="#DejaVuSans-6e" x="209.082031"/>
      <use xlink:href="#DejaVuSans-20" x="272.460938"/>
      <use xlink:href="#DejaVuSans-77" x="304.248047"/>
      <use xlink:href="#DejaVuSans-2f" x="386.035156"/>
      <use xlink:href="#DejaVuSans-6f" x="419.726562"/>
      <use xlink:href="#DejaVuSans-20" x="480.908203"/>
      <use xlink:href="#DejaVuSans-52" x="512.695312"/>
      <use xlink:href="#DejaVuSans-65" x="577.677734"/>
      <use xlink:href="#DejaVuSans-6c" x="639.201172"/>
      <use xlink:href="#DejaVuSans-61" x="666.984375"/>
      <use xlink:href="#DejaVuSans-74" x="728.263672"/>
      <use xlink:href="#DejaVuSans-69" x="767.472656"/>
      <use xlink:href="#DejaVuSans-6f" x="795.255859"/>
      <use xlink:href="#DejaVuSans-6e" x="856.4375"/>
     </g>
    </g>
    <g id="patch_8">
     <path d="M 489.723437 83.116562 
L 509.723437 83.116562 
L 509.723437 76.116562 
L 489.723437 76.116562 
z
" style="fill: #05a087; fill-opacity: 0.3; stroke: #05a087; stroke-opacity: 0.3; stroke-linejoin: miter"/>
    </g>
    <g id="text_15">
     <!-- Range w/o Relation -->
     <g transform="translate(517.723438 83.116562) scale(0.1 -0.1)">
      <defs>
       <path id="DejaVuSans-67" d="M 2906 1791 
Q 2906 2416 2648 2759 
Q 2391 3103 1925 3103 
Q 1463 3103 1205 2759 
Q 947 2416 947 1791 
Q 947 1169 1205 825 
Q 1463 481 1925 481 
Q 2391 481 2648 825 
Q 2906 1169 2906 1791 
z
M 3481 434 
Q 3481 -459 3084 -895 
Q 2688 -1331 1869 -1331 
Q 1566 -1331 1297 -1286 
Q 1028 -1241 775 -1147 
L 775 -588 
Q 1028 -725 1275 -790 
Q 1522 -856 1778 -856 
Q 2344 -856 2625 -561 
Q 2906 -266 2906 331 
L 2906 616 
Q 2728 306 2450 153 
Q 2172 0 1784 0 
Q 1141 0 747 490 
Q 353 981 353 1791 
Q 353 2603 747 3093 
Q 1141 3584 1784 3584 
Q 2172 3584 2450 3431 
Q 2728 3278 2906 2969 
L 2906 3500 
L 3481 3500 
L 3481 434 
z
" transform="scale(0.015625)"/>
      </defs>
      <use xlink:href="#DejaVuSans-52"/>
      <use xlink:href="#DejaVuSans-61" x="67.232422"/>
      <use xlink:href="#DejaVuSans-6e" x="128.511719"/>
      <use xlink:href="#DejaVuSans-67" x="191.890625"/>
      <use xlink:href="#DejaVuSans-65" x="255.367188"/>
      <use xlink:href="#DejaVuSans-20" x="316.890625"/>
      <use xlink:href="#DejaVuSans-77" x="348.677734"/>
      <use xlink:href="#DejaVuSans-2f" x="430.464844"/>
      <use xlink:href="#DejaVuSans-6f" x="464.15625"/>
      <use xlink:href="#DejaVuSans-20" x="525.337891"/>
      <use xlink:href="#DejaVuSans-52" x="557.125"/>
      <use xlink:href="#DejaVuSans-65" x="622.107422"/>
      <use xlink:href="#DejaVuSans-6c" x="683.630859"/>
      <use xlink:href="#DejaVuSans-61" x="711.414062"/>
      <use xlink:href="#DejaVuSans-74" x="772.693359"/>
      <use xlink:href="#DejaVuSans-69" x="811.902344"/>
      <use xlink:href="#DejaVuSans-6f" x="839.685547"/>
      <use xlink:href="#DejaVuSans-6e" x="900.867188"/>
     </g>
    </g>
    <g id="line2d_16">
     <path d="M 489.723437 94.294687 
L 499.723437 94.294687 
L 509.723437 94.294687 
" style="fill: none; stroke: #d43f3b; stroke-width: 1.5; stroke-linecap: square"/>
     <g>
      <use xlink:href="#m9619b44a1d" x="499.723437" y="94.294687" style="fill: #d43f3b; stroke: #d43f3b"/>
     </g>
    </g>
    <g id="text_16">
     <!-- Mean w/ Relation -->
     <g transform="translate(517.723438 97.794687) scale(0.1 -0.1)">
      <use xlink:href="#DejaVuSans-4d"/>
      <use xlink:href="#DejaVuSans-65" x="86.279297"/>
      <use xlink:href="#DejaVuSans-61" x="147.802734"/>
      <use xlink:href="#DejaVuSans-6e" x="209.082031"/>
      <use xlink:href="#DejaVuSans-20" x="272.460938"/>
      <use xlink:href="#DejaVuSans-77" x="304.248047"/>
      <use xlink:href="#DejaVuSans-2f" x="386.035156"/>
      <use xlink:href="#DejaVuSans-20" x="419.726562"/>
      <use xlink:href="#DejaVuSans-52" x="451.513672"/>
      <use xlink:href="#DejaVuSans-65" x="516.496094"/>
      <use xlink:href="#DejaVuSans-6c" x="578.019531"/>
      <use xlink:href="#DejaVuSans-61" x="605.802734"/>
      <use xlink:href="#DejaVuSans-74" x="667.082031"/>
      <use xlink:href="#DejaVuSans-69" x="706.291016"/>
      <use xlink:href="#DejaVuSans-6f" x="734.074219"/>
      <use xlink:href="#DejaVuSans-6e" x="795.255859"/>
     </g>
    </g>
    <g id="patch_9">
     <path d="M 489.723437 112.472812 
L 509.723437 112.472812 
L 509.723437 105.472812 
L 489.723437 105.472812 
z
" style="fill: #d43f3b; fill-opacity: 0.3; stroke: #d43f3b; stroke-opacity: 0.3; stroke-linejoin: miter"/>
    </g>
    <g id="text_17">
     <!-- Range w/ Relation -->
     <g transform="translate(517.723438 112.472812) scale(0.1 -0.1)">
      <use xlink:href="#DejaVuSans-52"/>
      <use xlink:href="#DejaVuSans-61" x="67.232422"/>
      <use xlink:href="#DejaVuSans-6e" x="128.511719"/>
      <use xlink:href="#DejaVuSans-67" x="191.890625"/>
      <use xlink:href="#DejaVuSans-65" x="255.367188"/>
      <use xlink:href="#DejaVuSans-20" x="316.890625"/>
      <use xlink:href="#DejaVuSans-77" x="348.677734"/>
      <use xlink:href="#DejaVuSans-2f" x="430.464844"/>
      <use xlink:href="#DejaVuSans-20" x="464.15625"/>
      <use xlink:href="#DejaVuSans-52" x="495.943359"/>
      <use xlink:href="#DejaVuSans-65" x="560.925781"/>
      <use xlink:href="#DejaVuSans-6c" x="622.449219"/>
      <use xlink:href="#DejaVuSans-61" x="650.232422"/>
      <use xlink:href="#DejaVuSans-74" x="711.511719"/>
      <use xlink:href="#DejaVuSans-69" x="750.720703"/>
      <use xlink:href="#DejaVuSans-6f" x="778.503906"/>
      <use xlink:href="#DejaVuSans-6e" x="839.685547"/>
     </g>
    </g>
    <g id="line2d_17">
     <path d="M 489.723437 123.650937 
L 499.723437 123.650937 
L 509.723437 123.650937 
" style="fill: none; stroke: #6d3e99; stroke-width: 1.5; stroke-linecap: square"/>
     <g>
      <use xlink:href="#mfa1fccf7ce" x="499.723437" y="123.650937" style="fill: #6d3e99; stroke: #6d3e99"/>
     </g>
    </g>
    <g id="text_18">
     <!-- Mean w/ Relation + DPR -->
     <g transform="translate(517.723438 127.150937) scale(0.1 -0.1)">
      <defs>
       <path id="DejaVuSans-2b" d="M 2944 4013 
L 2944 2272 
L 4684 2272 
L 4684 1741 
L 2944 1741 
L 2944 0 
L 2419 0 
L 2419 1741 
L 678 1741 
L 678 2272 
L 2419 2272 
L 2419 4013 
L 2944 4013 
z
" transform="scale(0.015625)"/>
       <path id="DejaVuSans-44" d="M 1259 4147 
L 1259 519 
L 2022 519 
Q 2988 519 3436 956 
Q 3884 1394 3884 2338 
Q 3884 3275 3436 3711 
Q 2988 4147 2022 4147 
L 1259 4147 
z
M 628 4666 
L 1925 4666 
Q 3281 4666 3915 4102 
Q 4550 3538 4550 2338 
Q 4550 1131 3912 565 
Q 3275 0 1925 0 
L 628 0 
L 628 4666 
z
" transform="scale(0.015625)"/>
      </defs>
      <use xlink:href="#DejaVuSans-4d"/>
      <use xlink:href="#DejaVuSans-65" x="86.279297"/>
      <use xlink:href="#DejaVuSans-61" x="147.802734"/>
      <use xlink:href="#DejaVuSans-6e" x="209.082031"/>
      <use xlink:href="#DejaVuSans-20" x="272.460938"/>
      <use xlink:href="#DejaVuSans-77" x="304.248047"/>
      <use xlink:href="#DejaVuSans-2f" x="386.035156"/>
      <use xlink:href="#DejaVuSans-20" x="419.726562"/>
      <use xlink:href="#DejaVuSans-52" x="451.513672"/>
      <use xlink:href="#DejaVuSans-65" x="516.496094"/>
      <use xlink:href="#DejaVuSans-6c" x="578.019531"/>
      <use xlink:href="#DejaVuSans-61" x="605.802734"/>
      <use xlink:href="#DejaVuSans-74" x="667.082031"/>
      <use xlink:href="#DejaVuSans-69" x="706.291016"/>
      <use xlink:href="#DejaVuSans-6f" x="734.074219"/>
      <use xlink:href="#DejaVuSans-6e" x="795.255859"/>
      <use xlink:href="#DejaVuSans-20" x="858.634766"/>
      <use xlink:href="#DejaVuSans-2b" x="890.421875"/>
      <use xlink:href="#DejaVuSans-20" x="974.210938"/>
      <use xlink:href="#DejaVuSans-44" x="1005.998047"/>
      <use xlink:href="#DejaVuSans-50" x="1083"/>
      <use xlink:href="#DejaVuSans-52" x="1143.302734"/>
     </g>
    </g>
    <g id="patch_10">
     <path d="M 489.723437 141.829062 
L 509.723437 141.829062 
L 509.723437 134.829062 
L 489.723437 134.829062 
z
" style="fill: #6d3e99; fill-opacity: 0.3; stroke: #6d3e99; stroke-opacity: 0.3; stroke-linejoin: miter"/>
    </g>
    <g id="text_19">
     <!-- Range w/ Relation -->
     <g transform="translate(517.723438 141.829062) scale(0.1 -0.1)">
      <use xlink:href="#DejaVuSans-52"/>
      <use xlink:href="#DejaVuSans-61" x="67.232422"/>
      <use xlink:href="#DejaVuSans-6e" x="128.511719"/>
      <use xlink:href="#DejaVuSans-67" x="191.890625"/>
      <use xlink:href="#DejaVuSans-65" x="255.367188"/>
      <use xlink:href="#DejaVuSans-20" x="316.890625"/>
      <use xlink:href="#DejaVuSans-77" x="348.677734"/>
      <use xlink:href="#DejaVuSans-2f" x="430.464844"/>
      <use xlink:href="#DejaVuSans-20" x="464.15625"/>
      <use xlink:href="#DejaVuSans-52" x="495.943359"/>
      <use xlink:href="#DejaVuSans-65" x="560.925781"/>
      <use xlink:href="#DejaVuSans-6c" x="622.449219"/>
      <use xlink:href="#DejaVuSans-61" x="650.232422"/>
      <use xlink:href="#DejaVuSans-74" x="711.511719"/>
      <use xlink:href="#DejaVuSans-69" x="750.720703"/>
      <use xlink:href="#DejaVuSans-6f" x="778.503906"/>
      <use xlink:href="#DejaVuSans-6e" x="839.685547"/>
     </g>
    </g>
   </g>
  </g>
 </g>
 <defs>
  <clipPath id="pd9796046c8">
   <rect x="90" y="51.84" width="558" height="332.64"/>
  </clipPath>
 </defs>
</svg>
